<?xml version="1.0" encoding="utf-8"?>
<!-- Generator: Adobe Illustrator 23.0.1, SVG Export Plug-In . SVG Version: 6.00 Build 0)  -->
<svg version="1.1" id="email" xmlns="http://www.w3.org/2000/svg" xmlns:xlink="http://www.w3.org/1999/xlink" x="0px" y="0px"
	 viewBox="0 0 91.9 70" style="enable-background:new 0 0 91.9 70;" xml:space="preserve">
<style type="text/css">
	.st0{fill:#001B41;}
	.st1{fill:#0B9DCC;}
</style>
<g id="email_1_">
	<path class="st0" d="M14.1,31.7c-0.3,0-0.6-0.1-0.8-0.3c-0.4-0.4-0.4-1.1,0.1-1.5l7.9-7.4c0.4-0.4,1-0.4,1.4,0.1
		c0.4,0.4,0.3,1.3-0.2,1.6l-7.7,7.3C14.7,31.6,14.4,31.7,14.1,31.7z"/>
	<path class="st0" d="M36.2,10.9c-0.3,0-0.6-0.1-0.8-0.3C35,10.2,35,9.4,35.5,9.1l8.3-7.8c1.9-1.6,4.9-1.6,6.8-0.1L58.9,9
		c0.4,0.4,0.5,1.1,0.1,1.5c-0.4,0.4-1.1,0.4-1.5,0.1l-8.4-7.7c-1-0.9-2.8-0.9-3.8,0L37,10.6C36.8,10.8,36.5,10.9,36.2,10.9z"/>
	<path class="st0" d="M80.3,31.7c-0.3,0-0.5-0.1-0.8-0.3L71.6,24c-0.4-0.4-0.4-1.1-0.1-1.5c0.4-0.4,1.1-0.4,1.5-0.1l7.9,7.4
		c0.4,0.4,0.4,1.1,0.1,1.5C80.9,31.6,80.6,31.7,80.3,31.7z"/>
	<path class="st1" d="M72.4,35c-0.6,0-1.1-0.5-1.1-1.1V12c0-0.6-0.5-1.1-1.1-1.1h-46c-0.6,0-1.1,0.5-1.1,1.1v21.9
		c0,0.6-0.5,1.1-1.1,1.1s-1.1-0.5-1.1-1.1V12c0-1.8,1.5-3.3,3.3-3.3h46c1.8,0,3.3,1.5,3.3,3.3v21.9C73.4,34.5,73,35,72.4,35z"/>
	<path class="st0" d="M81.1,29.8c-0.2-0.3-0.5-0.4-0.9-0.3c-0.2-0.1-0.4,0-0.7,0.1L53.3,42.8c-0.1,0-0.1,0.1-0.1,0.1l-2.6-2.3
		c-1.9-1.6-4.9-1.6-6.7,0l-2.6,2.2c-0.1,0-0.1-0.1-0.1-0.1L14.9,29.6c-0.2-0.1-0.4-0.1-0.5-0.1c-0.4-0.1-0.8,0.1-1.1,0.4
		c-0.7,0.9-1.1,1.9-1.1,2.9v32.8c0,2.4,2,4.4,4.4,4.4h61.3c2.4,0,4.4-2,4.4-4.4V32.7C82.2,31.7,81.8,30.7,81.1,29.8z M79.9,31.9
		c0.1,0.3,0.2,0.5,0.2,0.9v32.8c0,0.2-0.1,0.5-0.1,0.7L55,44.4L79.9,31.9z M14.5,66.3c-0.1-0.2-0.1-0.4-0.1-0.7V32.7
		c0-0.3,0.1-0.5,0.2-0.8l24.9,12.5L14.5,66.3z M16.6,67.8c-0.2,0-0.3,0-0.4-0.1l29.1-25.5c1-0.9,2.8-0.9,3.9,0l29.2,25.5
		c-0.2,0.1-0.3,0.1-0.4,0.1H16.6z"/>
	<path class="st1" d="M51,20c-0.4-0.1-0.9,0.1-1.1,0.4c-0.4-0.3-1-0.4-1.6-0.5c-2.2-0.2-4.3,1.3-5.3,3.8c-0.7,1.7-0.7,3.4,0.1,4.8
		c0.5,0.9,1.3,1.5,2.2,1.8c0.3,0.1,0.6,0.1,0.9,0.1c1,0,2.1-0.4,3-1.3c0.1,0.1,0.2,0.2,0.2,0.3c0.8,0.9,2,0.9,2.7,0.9
		c2.2,0,5.3-2.7,5.3-7c0-4.6-2.1-6.8-3.9-7.9c-2-1.1-4-1.3-4.9-1.3c-6.1,0-11.3,5.4-11.3,11.9c0,7.3,5.7,10,9.5,10
		c2.6,0,4.9-1.4,5-1.5c0.5-0.3,0.7-1,0.3-1.5c-0.3-0.5-1-0.7-1.5-0.3c0,0-1.9,1.1-3.8,1.1c-2.5,0-7.3-1.6-7.4-7.9
		c0-5.1,4.3-9.7,9.1-9.7c2,0,6.6,0.7,6.6,6.9c0,3.2-2.3,4.8-3.1,4.8c-0.3,0-0.9,0-1-0.2c-0.1-0.1-0.2-0.3-0.2-1l0,0
		c0.1-0.2,0.1-0.4,0.1-0.7c0-0.1,0-0.2,0.1-0.3c0.2-0.8,0.3-1.4,0.4-2c0.1-0.2,0.1-0.3,0.1-0.5c0-0.1,0-0.1,0-0.1
		c0.3-1.4,0.4-2,0.4-2C51.9,20.8,51.6,20.2,51,20z M45.8,28.2c-0.3-0.1-0.6-0.3-0.8-0.7c-0.4-0.8-0.4-1.9,0.1-3c0.7-1.8,2-2.5,3-2.4
		c0.8,0.1,1.1,0.4,1.1,1.3l0,0c-0.1,0.6-0.2,1.3-0.4,2.1c0,0.1-0.1,0.3-0.1,0.4C47.9,27.6,46.6,28.4,45.8,28.2z"/>
</g>
</svg>
