<?xml version="1.0" encoding="utf-8"?>
<!-- Generator: Adobe Illustrator 23.0.1, SVG Export Plug-In . SVG Version: 6.00 Build 0)  -->
<svg version="1.1" id="hosting" xmlns="http://www.w3.org/2000/svg" xmlns:xlink="http://www.w3.org/1999/xlink" x="0px" y="0px"
	 viewBox="0 0 91.9 70" style="enable-background:new 0 0 91.9 70;" xml:space="preserve">
<style type="text/css">
	.st0{fill:#001B41;}
	.st1{fill:#0B9DCC;}
</style>
<g id="webhosting">
	<path class="st0" d="M74.4,0H4.5C2.1,0,0.1,2,0.1,4.4v50.3c0,2.4,2,4.4,4.4,4.4h22.9v6.6c0,1.2-1,2.2-2.2,2.2h-7.6
		c-0.6,0-1.1,0.5-1.1,1.1s0.5,1.1,1.1,1.1h18.6c0.6,0,1.1-0.5,1.1-1.1s-0.5-1.1-1.1-1.1H29c0.4-0.7,0.6-1.4,0.6-2.2V59H34
		c0.6,0,1.1-0.5,1.1-1.1s-0.5-1.1-1.1-1.1H4.5c-1.2,0-2.2-1-2.2-2.2V4.4c0-1.2,1-2.2,2.2-2.2h69.9c1.2,0,2.2,1,2.2,2.2v27.3
		c0,0.6,0.5,1.1,1.1,1.1s1.1-0.5,1.1-1.1V4.4C78.8,2,76.8,0,74.4,0z"/>
	<path class="st1" d="M51.5,64.5c-1.8,0-3.3-1.5-3.3-3.3s1.5-3.3,3.3-3.3s3.3,1.5,3.3,3.3S53.3,64.5,51.5,64.5z M51.5,60.1
		c-0.6,0-1.1,0.5-1.1,1.1s0.5,1.1,1.1,1.1s1.1-0.5,1.1-1.1S52.1,60.1,51.5,60.1z M65.7,64.5v-6.6c0-0.6-0.5-1.1-1.1-1.1
		c-0.6,0-1.1,0.5-1.1,1.1v6.6c0,0.6,0.5,1.1,1.1,1.1C65.2,65.5,65.7,65.1,65.7,64.5z M72.2,64.5v-6.6c0-0.6-0.5-1.1-1.1-1.1
		c-0.6,0-1.1,0.5-1.1,1.1v6.6c0,0.6,0.5,1.1,1.1,1.1C71.7,65.5,72.2,65.1,72.2,64.5z M78.8,64.5v-6.6c0-0.6-0.5-1.1-1.1-1.1
		s-1.1,0.5-1.1,1.1v6.6c0,0.6,0.5,1.1,1.1,1.1S78.8,65.1,78.8,64.5z M85.3,64.5v-6.6c0-0.6-0.5-1.1-1.1-1.1s-1.1,0.5-1.1,1.1v6.6
		c0,0.6,0.5,1.1,1.1,1.1S85.3,65.1,85.3,64.5z M91.9,50.3v-8.7c0-2.4-2-4.4-4.4-4.4H43.8c-2.4,0-4.4,2-4.4,4.4v8.7
		c0,1.3,0.6,2.5,1.5,3.3c-0.9,0.8-1.5,2-1.5,3.3v8.7c0,2.4,2,4.4,4.4,4.4h43.7c2.4,0,4.4-2,4.4-4.4v-8.7c0-1.3-0.6-2.5-1.5-3.3
		C91.3,52.7,91.9,51.6,91.9,50.3z M89.7,56.8v8.7c0,1.2-1,2.2-2.2,2.2H43.8c-1.2,0-2.2-1-2.2-2.2v-8.7c0-1.2,1-2.2,2.2-2.2h43.7
		C88.7,54.6,89.7,55.6,89.7,56.8z M43.8,52.4c-1.2,0-2.2-1-2.2-2.2v-8.7c0-1.2,1-2.2,2.2-2.2h43.7c1.2,0,2.2,1,2.2,2.2v8.7
		c0,1.2-1,2.2-2.2,2.2H43.8z M51.5,49.2c-1.8,0-3.3-1.5-3.3-3.3s1.5-3.3,3.3-3.3s3.3,1.5,3.3,3.3S53.3,49.2,51.5,49.2z M51.5,44.8
		c-0.6,0-1.1,0.5-1.1,1.1s0.5,1.1,1.1,1.1s1.1-0.5,1.1-1.1S52.1,44.8,51.5,44.8z M65.7,49.2v-6.6c0-0.6-0.5-1.1-1.1-1.1
		c-0.6,0-1.1,0.5-1.1,1.1v6.6c0,0.6,0.5,1.1,1.1,1.1C65.2,50.3,65.7,49.8,65.7,49.2z M72.2,49.2v-6.6c0-0.6-0.5-1.1-1.1-1.1
		c-0.6,0-1.1,0.5-1.1,1.1v6.6c0,0.6,0.5,1.1,1.1,1.1C71.7,50.3,72.2,49.8,72.2,49.2z M78.8,49.2v-6.6c0-0.6-0.5-1.1-1.1-1.1
		s-1.1,0.5-1.1,1.1v6.6c0,0.6,0.5,1.1,1.1,1.1S78.8,49.8,78.8,49.2z M85.3,49.2v-6.6c0-0.6-0.5-1.1-1.1-1.1s-1.1,0.5-1.1,1.1v6.6
		c0,0.6,0.5,1.1,1.1,1.1S85.3,49.8,85.3,49.2z"/>
</g>
</svg>
