<?xml version="1.0" encoding="utf-8"?>
<!-- Generator: Adobe Illustrator 23.0.4, SVG Export Plug-In . SVG Version: 6.00 Build 0)  -->
<svg version="1.1" id="Ebene_1" xmlns="http://www.w3.org/2000/svg" xmlns:xlink="http://www.w3.org/1999/xlink" x="0px" y="0px"
	 viewBox="0 0 98 70" style="enable-background:new 0 0 98 70;" xml:space="preserve">
<style type="text/css">
	.st0{fill:#001B41;}
	.st1{fill:#0B9DCC;}
</style>
<g>
	<path class="st0" d="M47.4,58.9H9.1c-2.4,0-4.4-2-4.4-4.4V4.4C4.7,2,6.7,0,9.1,0h69.8c2.4,0,4.4,2,4.4,4.4v14.6
		c0,0.6-0.5,1.1-1.1,1.1c-0.6,0-1.1-0.5-1.1-1.1V4.4c0-1.2-1-2.2-2.2-2.2H9.1c-1.2,0-2.2,1-2.2,2.2v50.2c0,1.2,1,2.2,2.2,2.2h38.3
		c0.6,0,1.1,0.5,1.1,1.1C48.5,58.4,48,58.9,47.4,58.9z"/>
	<path class="st0" d="M29.8,69.8c-0.6,0-1.1-0.5-1.1-1.1s0.5-1.1,1.1-1.1c1.2,0,2.2-1,2.2-2.2v-7.6c0-0.6,0.5-1.1,1.1-1.1
		c0.6,0,1.1,0.5,1.1,1.1v7.6C34.2,67.8,32.2,69.8,29.8,69.8z"/>
	<path class="st0" d="M47.2,69.8h-25c-0.6,0-1.1-0.5-1.1-1.1s0.5-1.1,1.1-1.1h25c0.6,0,1.1,0.5,1.1,1.1S47.8,69.8,47.2,69.8z"/>
</g>
<g>
	<path class="st1" d="M93,70H56.3c-1.9,0-3.5-1.4-3.5-3.2V32.2c0-1.8,1.6-3.3,3.5-3.3H93c2,0,3.5,1.5,3.5,3.3v34.6
		C96.5,68.6,94.9,70,93,70z M56.2,31c-0.7,0-1.3,0.5-1.3,1.1v34.7c0,0.6,0.6,1.1,1.3,1.1H93c0.7,0,1.3-0.5,1.3-1.1V32.1
		c0-0.6-0.6-1.1-1.3-1.1H56.2z"/>
	<path class="st1" d="M95.2,40.4H54.9c-0.6,0-1.1-0.5-1.1-1.1c0-0.6,0.5-1,1.1-1h40.3c0.6,0,1.1,0.4,1.1,1
		C96.3,39.9,95.8,40.4,95.2,40.4z"/>
</g>
<path class="st1" d="M64.7,35.3c-0.6,0-1.1-0.5-1.1-1.1v-8.6c0-0.6,0.5-1.1,1.1-1.1s1,0.5,1,1.1v8.6C65.8,34.9,65.3,35.3,64.7,35.3z
	"/>
<path class="st1" d="M84.4,35.5c-0.6,0-1.1-0.5-1.1-1.1v-8.6c0-0.6,0.5-1.1,1.1-1.1s1.1,0.5,1.1,1.1v8.6C85.4,35,85,35.5,84.4,35.5z
	"/>
<g>
	<path class="st1" d="M73.1,60.5c-0.3,0-0.5-0.1-0.8-0.3l-5.5-5.5c-0.4-0.4-0.4-1.1,0-1.5c0.4-0.4,1.1-0.4,1.5,0l4.6,4.6l7.6-9.9
		c0.4-0.5,1-0.5,1.5-0.2c0.5,0.4,0.5,1,0.2,1.5L73.9,60C73.7,60.3,73.4,60.4,73.1,60.5C73.1,60.5,73.1,60.5,73.1,60.5z"/>
</g>
</svg>
