<?xml version="1.0" encoding="utf-8"?>
<!-- Generator: Adobe Illustrator 23.0.1, SVG Export Plug-In . SVG Version: 6.00 Build 0)  -->
<svg version="1.1" id="online-marketing" xmlns="http://www.w3.org/2000/svg" xmlns:xlink="http://www.w3.org/1999/xlink" x="0px"
	 y="0px" viewBox="0 0 91.9 70" style="enable-background:new 0 0 91.9 70;" xml:space="preserve">
<style type="text/css">
	.st0{fill:#001B41;}
	.st1{fill:#0B9DCC;}
</style>
<g id="online-marketing_1_">
	<path class="st0" d="M74.4,0h-70C2,0,0,2,0,4.4v50.3c0,2.4,2,4.4,4.4,4.4h23v6.6c0,1.2-1,2.2-2.2,2.2h-7.7c-0.6,0-1.1,0.5-1.1,1.1
		s0.5,1.1,1.1,1.1h20.8c0.6,0,1.1-0.5,1.1-1.1s-0.5-1.1-1.1-1.1h-9.4c0.4-0.7,0.6-1.4,0.6-2.2v-6.6h8.8c0.6,0,1.1-0.5,1.1-1.1
		s-0.5-1.1-1.1-1.1H4.4c-1.2,0-2.2-1-2.2-2.2V4.4c0-1.2,1-2.2,2.2-2.2h70c1.2,0,2.2,1,2.2,2.2v14.2c0,0.6,0.5,1.1,1.1,1.1
		s1.1-0.5,1.1-1.1V4.4C78.8,2,76.8,0,74.4,0z"/>
	<path class="st1" d="M55.8,70H44.8c-0.6,0-1.1-0.5-1.1-1.1V47c0-0.6,0.5-1.1,1.1-1.1h10.9c0.6,0,1.1,0.5,1.1,1.1v21.9
		C56.9,69.5,56.4,70,55.8,70z M45.9,67.8h8.8V48.1h-8.8V67.8z"/>
	<path class="st1" d="M73.3,70H62.3c-0.6,0-1.1-0.5-1.1-1.1V36.1c0-0.6,0.5-1.1,1.1-1.1h10.9c0.6,0,1.1,0.5,1.1,1.1v32.8
		C74.4,69.5,73.9,70,73.3,70z M63.4,67.8h8.8V37.2h-8.8V67.8z"/>
	<path class="st1" d="M90.8,70H79.8c-0.6,0-1.1-0.5-1.1-1.1V25.2c0-0.6,0.5-1.1,1.1-1.1h10.9c0.6,0,1.1,0.5,1.1,1.1v43.8
		C91.9,69.5,91.4,70,90.8,70z M80.9,67.8h8.8V26.2h-8.8V67.8z"/>
</g>
</svg>
