<?xml version="1.0" encoding="utf-8"?>
<!-- Generator: Adobe Illustrator 23.0.4, SVG Export Plug-In . SVG Version: 6.00 Build 0)  -->
<svg version="1.1" id="Ebene_1" xmlns="http://www.w3.org/2000/svg" xmlns:xlink="http://www.w3.org/1999/xlink" x="0px" y="0px"
	 viewBox="0 0 94.5 70" style="enable-background:new 0 0 94.5 70;" xml:space="preserve">
<style type="text/css">
	.st0{fill:#0B9DCC;}
	.st1{fill:#001B41;}
</style>
<path class="st0" d="M78.1,33.1c0,0-0.8,2.2-4.8,7c-2.8,3.3-4.8,5.4-5.7,6.5L53.6,32.6c-3.3-3.3-7.8-3-11.6,0.8l-3.9,3.9
	c-1.3,1.3-3.3,1.3-4.6,0c-1.3-1.3-1.3-3.3,0-4.6l3.9-3.9c3.3-3.3,6.7-3.8,9.6-4.1c2.2-0.3,4.3-0.5,5.9-2.1l7.7-7.7L59,13.3l-7.7,7.7
	c-0.3,0.3-0.7,0.5-1.1,0.7c-1.7-0.9-3.6-1.7-5.5-2.4c-3.7-1.4-9.6-5.2-9.6-5.2l-1.5,1.5c0,0,6.6,4.2,10.4,5.7
	c0.9,0.4,1.9,0.7,2.7,1.1c-3.2,0.4-7.1,0.9-10.9,4.8l-3.9,3.8c-2.1,2.1-2.1,5.6,0,7.8s5.6,2.1,7.8,0l3.9-3.9
	c4.2-4.2,7.3-1.9,8.5-0.8l17.3,17.3c0.9,0.9,0.9,2.2,0,3.1c-0.9,0.9-2.2,0.9-3.1,0l-5-5c-0.4-0.4-1.1-0.4-1.5,0.1s-0.4,1,0,1.5
	l5.4,5.4c0.9,0.8,0.9,2.2,0.1,3.1c-0.8,0.9-2.2,0.9-3.1,0.1l-0.1-0.1l-4.6-4.6c-0.4-0.4-1.1-0.4-1.5,0c-0.4,0.4-0.4,1.1,0,1.5
	l3.2,3.2c0.9,0.9,1.5,3,0.7,3.8c-0.8,0.8-2.6,0.5-3.5-0.4l-2.7-2.7c-0.4-0.4-1.1-0.4-1.5,0s-0.4,1.1,0,1.5l2,1.9
	c0.5,0.5,0.9,1.1,1,1.8c0.2,0.4,0.1,1-0.3,1.3c-1,1-2.6,0.8-3.7,0.2c-0.4-0.3-2.4-1.6-5.4-3.9c-0.2-2.3-2.1-4-4.4-4H41l0.3-0.3
	c1.7-1.7,1.7-4.5,0-6.2c-1-1-2.4-1.4-3.8-1.2c0.1-0.2,0.1-0.5,0.1-0.7c0-2.4-2-4.4-4.4-4.4c-1.1,0-2.2,0.4-3,1.2
	c-0.3-2.4-2.4-4.2-4.8-3.9c-0.1,0-0.3,0.1-0.4,0.1c-5-5.5-8.8-10.1-8.8-10.1l-1.5,1.6c0,0,3.5,4.3,8.3,9.5l-0.2,0.2
	c-1.7,1.7-1.7,4.5,0,6.2c0.8,0.8,2,1.3,3.2,1.3H26c-0.8,2.3,0.4,4.8,2.7,5.6c0.4,0.2,0.9,0.2,1.4,0.2c0.2,0,0.5,0,0.7-0.1
	c-0.1,0.2-0.1,0.5-0.1,0.7c0,2.4,2,4.4,4.4,4.4c0.7,0,1.3-0.2,1.9-0.4c-0.1,0.2-0.1,0.4-0.1,0.7c0,2.4,2,4.4,4.4,4.4
	c1.1,0,2.2-0.4,3.1-1.3c0.3-0.3,0.5-0.7,0.8-1c2.8,2.2,4.6,3.4,4.8,3.4l0.1,0.1c0.9,0.5,1.9,0.7,2.9,0.7c1.3,0.1,2.5-0.4,3.4-1.3
	c0.7-0.7,1-1.6,1-2.5c0.4,0.1,0.8,0.2,1.2,0.2c1,0.1,2.1-0.4,2.8-1.1c0.7-0.8,1-1.7,1-2.8c0.4,0.2,0.9,0.2,1.3,0.2
	c2.4,0,4.4-2,4.4-4.4c0-0.2,0-0.4-0.1-0.7c2.4-0.1,4.4-2,4.3-4.4c0-1.1-0.5-2.2-1.3-3.1l-1.9-1.9c1-1,3-3.2,5.9-6.6
	c4.3-5.1,5.2-7.7,5.2-7.7L78.1,33.1z M24.2,49.7c-0.8-0.9-0.8-2.2,0.1-3.1c0.8-0.8,2.2-0.8,3,0c0.9,0.9,0.9,2.2,0,3.1
	C26.5,50.6,25,50.6,24.2,49.7z M28.4,55.5c-0.9-0.9-0.9-2.2,0-3.1l3.1-3.1c0.8-0.9,2.2-0.9,3.1-0.1c0.9,0.8,0.9,2.2,0.1,3.1
	l-0.1,0.1l-3.1,3.1C30.7,56.3,29.3,56.3,28.4,55.5z M33.5,60.5c-0.9-0.9-0.9-2.2,0-3.1l3.1-3.1c0.9-0.9,2.2-0.9,3.1,0
	c0.9,0.9,0.9,2.2,0,3.1l-3.1,3.1C35.7,61.4,34.3,61.4,33.5,60.5z M42.8,65.2c-0.9,0.9-2.2,0.8-3.1,0c-0.9-0.9-0.8-2.2,0-3.1
	c0.9-0.9,2.2-0.8,3.1,0c0.4,0.4,0.7,1,0.7,1.5C43.4,64.2,43.2,64.7,42.8,65.2z"/>
<path class="st1" d="M29.6,1c-1.3-1.3-3.3-1.3-4.6,0L2.5,23.5c-1.3,1.3-1.3,3.3,0,4.6l7.8,7.8c1.3,1.3,3.3,1.3,4.6,0l22.5-22.5
	c1.3-1.3,1.3-3.3,0-4.6L29.6,1z M35.8,11.8L13.3,34.3c-0.4,0.4-1.1,0.4-1.5,0L4,26.6c-0.2-0.2-0.3-0.5-0.3-0.8S3.8,25.3,4,25
	L26.5,2.5c0.2-0.2,0.5-0.3,0.8-0.3s0.5,0.1,0.8,0.3l7.7,7.7c0.2,0.2,0.3,0.5,0.3,0.8C36.1,11.3,36,11.6,35.8,11.8z M11.9,26.5
	c0.4,0.4,0.4,1.1,0,1.5c-0.4,0.4-1.1,0.4-1.5,0c-0.4-0.4-0.4-1.1,0-1.5C10.8,26.1,11.4,26.1,11.9,26.5z M92.4,23.5L69.8,1
	c-1.3-1.3-3.3-1.3-4.6,0l-7.7,7.7c-1.3,1.3-1.3,3.3,0,4.6L80,35.9c1.3,1.3,3.3,1.3,4.6,0l7.7-7.8C93.6,26.8,93.6,24.8,92.4,23.5
	L92.4,23.5z M90.8,26.6l-7.7,7.8c-0.4,0.4-1.1,0.4-1.5,0L59,11.8c-0.2-0.2-0.3-0.5-0.3-0.8c0-0.3,0.1-0.5,0.3-0.8l7.7-7.7
	c0.2-0.2,0.5-0.3,0.8-0.3c0.3,0,0.5,0.1,0.8,0.3l22.5,22.5c0.2,0.2,0.3,0.5,0.3,0.8C91.1,26.1,91,26.4,90.8,26.6z M83.9,25.9
	c0.4,0.4,0.4,1.1,0,1.5c-0.4,0.4-1.1,0.4-1.5,0c-0.4-0.4-0.4-1.1,0-1.5C82.8,25.4,83.5,25.4,83.9,25.9z"/>
</svg>
