<?xml version="1.0" encoding="utf-8"?>
<!-- Generator: Adobe Illustrator 23.0.1, SVG Export Plug-In . SVG Version: 6.00 Build 0)  -->
<svg version="1.1" id="server-and-cloud" xmlns="http://www.w3.org/2000/svg" xmlns:xlink="http://www.w3.org/1999/xlink" x="0px"
	 y="0px" viewBox="0 0 91.9 70" style="enable-background:new 0 0 91.9 70;" xml:space="preserve">
<style type="text/css">
	.st0{fill:#0B9DCC;}
	.st1{fill:#001B41;}
</style>
<g>
	<path class="st0" d="M30.6,64.5c-2.4,0-4.4-2-4.4-4.4s2-4.4,4.4-4.4s4.4,2,4.4,4.4S33,64.5,30.6,64.5z M30.6,58
		c-1.2,0-2.2,1-2.2,2.2s1,2.2,2.2,2.2s2.2-1,2.2-2.2S31.8,58,30.6,58z"/>
	<path class="st0" d="M44.8,65.6c-0.6,0-1.1-0.5-1.1-1.1v-8.8c0-0.6,0.5-1.1,1.1-1.1s1.1,0.5,1.1,1.1v8.8
		C45.9,65.1,45.4,65.6,44.8,65.6z"/>
	<path class="st0" d="M51.4,65.6c-0.6,0-1.1-0.5-1.1-1.1v-8.8c0-0.6,0.5-1.1,1.1-1.1s1.1,0.5,1.1,1.1v8.8
		C52.5,65.1,52,65.6,51.4,65.6z"/>
	<path class="st0" d="M58,65.6c-0.6,0-1.1-0.5-1.1-1.1v-8.8c0-0.6,0.5-1.1,1.1-1.1s1.1,0.5,1.1,1.1v8.8C59.1,65.1,58.6,65.6,58,65.6
		z"/>
	<path class="st0" d="M64.5,65.6c-0.6,0-1.1-0.5-1.1-1.1v-8.8c0-0.6,0.5-1.1,1.1-1.1s1.1,0.5,1.1,1.1v8.8
		C65.6,65.1,65.1,65.6,64.5,65.6z"/>
	<path class="st0" d="M74.4,48.1V37.2c0-2.4-2-4.4-4.4-4.4H21.9c-2.4,0-4.4,2-4.4,4.4v10.9c0,1.3,0.6,2.5,1.5,3.3
		c-0.9,0.8-1.5,2-1.5,3.3v10.9c0,2.4,2,4.4,4.4,4.4H70c2.4,0,4.4-2,4.4-4.4V54.7c0-1.3-0.6-2.5-1.5-3.3
		C73.8,50.6,74.4,49.4,74.4,48.1z M72.2,54.7v10.9c0,1.2-1,2.2-2.2,2.2H21.9c-1.2,0-2.2-1-2.2-2.2V54.7c0-1.2,1-2.2,2.2-2.2H70
		C71.2,52.5,72.2,53.5,72.2,54.7z M21.9,50.3c-1.2,0-2.2-1-2.2-2.2V37.2c0-1.2,1-2.2,2.2-2.2H70c1.2,0,2.2,1,2.2,2.2v10.9
		c0,1.2-1,2.2-2.2,2.2H21.9z"/>
	<path class="st0" d="M30.6,47c-2.4,0-4.4-2-4.4-4.4s2-4.4,4.4-4.4s4.4,2,4.4,4.4S33,47,30.6,47z M30.6,40.5c-1.2,0-2.2,1-2.2,2.2
		s1,2.2,2.2,2.2s2.2-1,2.2-2.2S31.8,40.5,30.6,40.5z"/>
	<path class="st0" d="M44.8,48.1c-0.6,0-1.1-0.5-1.1-1.1v-8.8c0-0.6,0.5-1.1,1.1-1.1s1.1,0.5,1.1,1.1V47
		C45.9,47.6,45.4,48.1,44.8,48.1z"/>
	<path class="st0" d="M51.4,48.1c-0.6,0-1.1-0.5-1.1-1.1v-8.8c0-0.6,0.5-1.1,1.1-1.1s1.1,0.5,1.1,1.1V47
		C52.5,47.6,52,48.1,51.4,48.1z"/>
	<path class="st0" d="M58,48.1c-0.6,0-1.1-0.5-1.1-1.1v-8.8c0-0.6,0.5-1.1,1.1-1.1s1.1,0.5,1.1,1.1V47C59.1,47.6,58.6,48.1,58,48.1z
		"/>
	<path class="st0" d="M64.5,48.1c-0.6,0-1.1-0.5-1.1-1.1v-8.8c0-0.6,0.5-1.1,1.1-1.1s1.1,0.5,1.1,1.1V47
		C65.6,47.6,65.1,48.1,64.5,48.1z"/>
	<path class="st1" d="M79.8,55.9c-0.4,0-0.9-0.3-1-0.7c-0.2-0.5,0.1-1.2,0.7-1.4c6.1-2.2,10.2-8,10.2-14.5c0-6.8-4.3-12.6-10.8-14.7
		c-0.4-0.1-0.7-0.4-0.7-0.8c-2-7.7-9-13-17-13c-0.2,0-0.4,0-0.5,0c-0.2,0-0.4,0.1-0.7,0.1c-0.3,0-0.6-0.1-0.8-0.4
		c-4.8-5.4-11.6-8.4-18.8-8.4c-11.7,0-21.7,7.9-24.4,19.2c-0.1,0.4-0.4,0.7-0.8,0.8c-7.5,1.6-13,8.3-13,16c0,6.7,4,12.7,10.3,15.2
		c0.5,0.2,0.8,0.9,0.6,1.4s-0.9,0.8-1.4,0.6C4.5,52.7,0,45.9,0,38.3c0-8.5,5.9-16,14.1-18C17.2,8.3,28,0,40.5,0
		c7.6,0,14.9,3.2,20.1,8.8l0,0c0.2,0,0.4-0.1,0.7-0.1c8.8,0,16.5,5.7,18.9,14.1c7.1,2.5,11.8,9.1,11.8,16.6
		c0,7.4-4.7,14.1-11.6,16.5C80.1,55.9,80,55.9,79.8,55.9z"/>
</g>
</svg>
