<?xml version="1.0" encoding="utf-8"?>
<!-- Generator: Adobe Illustrator 23.0.1, SVG Export Plug-In . SVG Version: 6.00 Build 0)  -->
<svg version="1.1" id="ssl" xmlns="http://www.w3.org/2000/svg" xmlns:xlink="http://www.w3.org/1999/xlink" x="0px" y="0px"
	 viewBox="0 0 91.9 70" style="enable-background:new 0 0 91.9 70;" xml:space="preserve">
<style type="text/css">
	.st0{fill:#001B41;}
	.st1{fill:#0B9DCC;}
</style>
<g>
	<path class="st0" d="M65.6,28.4h-4.4V15.3c0-8.4-6.9-15.3-15.3-15.3S30.6,6.9,30.6,15.3v13.1h-4.4c-2.4,0-4.4,2-4.4,4.4v32.8
		c0,2.4,2,4.4,4.4,4.4h39.3c2.4,0,4.4-2,4.4-4.4V32.8C70,30.4,68,28.4,65.6,28.4z M32.8,15.3c0-7.2,5.9-13.1,13.1-13.1
		S59,8.1,59,15.3v13.1h-4.4V15.3c0-4.8-3.9-8.7-8.7-8.7s-8.7,3.9-8.7,8.7v13.1h-4.4V15.3z M39.4,28.4V15.3c0-3.6,2.9-6.6,6.6-6.6
		s6.6,2.9,6.6,6.6v13.1H39.4z M67.8,65.6c0,1.2-1,2.2-2.2,2.2H26.3c-1.2,0-2.2-1-2.2-2.2V32.8c0-1.2,1-2.2,2.2-2.2h39.3
		c1.2,0,2.2,1,2.2,2.2V65.6z"/>
	<path class="st1" d="M51.5,59h-11c-0.3,0-0.7-0.2-0.9-0.4c-0.2-0.3-0.3-0.6-0.2-0.9l2.4-8.8c-1.5-1.3-2.5-3.1-2.5-5.1
		c0-3.6,2.9-6.6,6.6-6.6s6.6,2.9,6.6,6.6c0,2-0.9,3.8-2.4,5.1l2.4,8.8c0.1,0.3,0,0.7-0.2,0.9C52.1,58.9,51.8,59,51.5,59z M41.9,56.8
		H50l-2.2-8.2c-0.1-0.4,0.1-0.9,0.4-1.2c1.3-0.8,2.1-2.2,2.1-3.7c0-2.4-2-4.4-4.4-4.4s-4.4,2-4.4,4.4c0,1.5,0.8,2.9,2.1,3.7
		c0.4,0.3,0.6,0.8,0.5,1.2L41.9,56.8z"/>
</g>
</svg>
